<svg xmlns="http://www.w3.org/2000/svg" width="1500" height="795" viewBox="0 0 1500 795"><rect width="100%" height="100%" fill="white"/>
<rect x="30" y="30" width="555" height="120" rx="12" fill="#eeeeee" stroke="#333333" stroke-width="3"/>
<text x="307.5" y="78.96000000000001" font-size="32" font-family="Microsoft YaHei, sans-serif" text-anchor="middle" fill="#171717">原始 Transcript</text>
<text x="307.5" y="122.16" font-size="32" font-family="Microsoft YaHei, sans-serif" text-anchor="middle" fill="#171717">完整工具调用与结果</text>
<rect x="900" y="30" width="570" height="120" rx="12" fill="#eeeeee" stroke="#333333" stroke-width="3"/>
<text x="1185.0" y="78.96000000000001" font-size="32" font-family="Microsoft YaHei, sans-serif" text-anchor="middle" fill="#171717">持久化与批准恢复</text>
<text x="1185.0" y="122.16" font-size="32" font-family="Microsoft YaHei, sans-serif" text-anchor="middle" fill="#171717">保持原记录</text>
<polyline points="585,90 900,90" fill="none" stroke="#333333" stroke-width="3"/>
<polygon points="900,90 884.3419631019509,96.62011181924706 884.3419631019509,83.37988818075294" fill="#333333"/>
<rect x="30" y="255" width="555" height="110" rx="12" fill="#ffffff" stroke="#333333" stroke-width="3"/>
<text x="307.5" y="320.56" font-size="32" font-family="Microsoft YaHei, sans-serif" text-anchor="middle" fill="#171717">复制为本次模型视图</text>
<polyline points="305,150 305,255" fill="none" stroke="#333333" stroke-width="3"/>
<polygon points="305,255 298.3798881807529,239.34196310195097 311.62011181924703,239.34196310195097" fill="#333333"/>
<rect x="900" y="255" width="570" height="110" rx="12" fill="#ffffff" stroke="#333333" stroke-width="3"/>
<text x="1185.0" y="299.305" font-size="31" font-family="Microsoft YaHei, sans-serif" text-anchor="middle" fill="#171717">重复成功纯日志引用替换</text>
<text x="1185.0" y="341.15500000000003" font-size="31" font-family="Microsoft YaHei, sans-serif" text-anchor="middle" fill="#171717">保留最新完整副本</text>
<polyline points="585,310 900,310" fill="none" stroke="#333333" stroke-width="3"/>
<polygon points="900,310 884.3419631019509,316.6201118192471 884.3419631019509,303.3798881807529" fill="#333333"/>
<rect x="900" y="470" width="570" height="110" rx="12" fill="#ffffff" stroke="#333333" stroke-width="3"/>
<text x="1185.0" y="514.305" font-size="31" font-family="Microsoft YaHei, sans-serif" text-anchor="middle" fill="#171717">注入本次源码证据</text>
<text x="1185.0" y="556.155" font-size="31" font-family="Microsoft YaHei, sans-serif" text-anchor="middle" fill="#171717">再校验输入预算</text>
<polyline points="1185,365 1185,470" fill="none" stroke="#333333" stroke-width="3"/>
<polygon points="1185,470 1178.379888180753,454.34196310195097 1191.620111819247,454.34196310195097" fill="#333333"/>
<rect x="30" y="470" width="555" height="110" rx="12" fill="#ffffff" stroke="#333333" stroke-width="3"/>
<text x="307.5" y="514.305" font-size="31" font-family="Microsoft YaHei, sans-serif" text-anchor="middle" fill="#171717">按完整工具消息组裁剪</text>
<text x="307.5" y="556.155" font-size="31" font-family="Microsoft YaHei, sans-serif" text-anchor="middle" fill="#171717">超出不可裁剪预算则失败</text>
<polyline points="900,525 585,525" fill="none" stroke="#333333" stroke-width="3"/>
<polygon points="585,525 600.6580368980491,518.3798881807529 600.6580368980491,531.6201118192471" fill="#333333"/>
<rect x="30" y="660" width="555" height="110" rx="12" fill="#eeeeee" stroke="#333333" stroke-width="3"/>
<text x="307.5" y="725.56" font-size="32" font-family="Microsoft YaHei, sans-serif" text-anchor="middle" fill="#171717">模型请求与工具执行</text>
<polyline points="305,580 305,660" fill="none" stroke="#333333" stroke-width="3"/>
<polygon points="305,660 298.3798881807529,644.3419631019509 311.62011181924703,644.3419631019509" fill="#333333"/>
<rect x="900" y="660" width="570" height="110" rx="12" fill="#eeeeee" stroke="#333333" stroke-width="3"/>
<text x="1185.0" y="704.3050000000001" font-size="31" font-family="Microsoft YaHei, sans-serif" text-anchor="middle" fill="#171717">完整结果回到原始记录</text>
<text x="1185.0" y="746.155" font-size="31" font-family="Microsoft YaHei, sans-serif" text-anchor="middle" fill="#171717">真实 usage 独立统计</text>
<polyline points="585,715 900,715" fill="none" stroke="#333333" stroke-width="3"/>
<polygon points="900,715 884.3419631019509,721.6201118192471 884.3419631019509,708.3798881807529" fill="#333333"/>
</svg>
